<svg xmlns="http://www.w3.org/2000/svg" width="1200" height="420" viewBox="0 0 1200 420" role="img" aria-labelledby="title desc">
  <title id="title">indigokarasu-site</title>
  <desc id="desc">WEBSITE</desc>
  <defs>
    <radialGradient id="bg" cx="0.32" cy="0.42" r="0.95" gradientUnits="userSpaceOnUse">
      <stop offset="0" stop-color="#15101F"/>
      <stop offset="0.55" stop-color="#0C0F16"/>
      <stop offset="1" stop-color="#0B0E11"/>
    </radialGradient>
    <linearGradient id="acc" x1="0" y1="0" x2="1" y2="0">
      <stop offset="0" stop-color="#7C5CFF"/>
      <stop offset="1" stop-color="#9B7BFF"/>
    </linearGradient>
    <linearGradient id="panel" x1="0" y1="0" x2="0" y2="1">
      <stop offset="0" stop-color="#161B26"/>
      <stop offset="1" stop-color="#10131B"/>
    </linearGradient>
  </defs>
  <rect width="1200" height="420" fill="url(#bg)"/>
  <rect x="598" y="56" width="1" height="312" fill="#222838"/>
  <text x="64" y="74" font-family="-apple-system,BlinkMacSystemFont,Segoe UI,sans-serif" font-size="12" letter-spacing="3" fill="#7C5CFF">WEBSITE</text>
  <text x="62" y="128" font-family="-apple-system,BlinkMacSystemFont,Segoe UI,sans-serif" font-size="50" font-weight="700" fill="#F4F6FB">indigokarasu-site</text>
  <rect x="64" y="146" width="52" height="4" rx="2" fill="url(#acc)"/>
<text x="64" y="176" font-family="-apple-system,BlinkMacSystemFont,Segoe UI,sans-serif" font-size="17" fill="#C7CEDB">Source for</text>
<text x="64" y="204" font-family="-apple-system,BlinkMacSystemFont,Segoe UI,sans-serif" font-size="17" fill="#C7CEDB">indigokarasu.com</text>
<rect x="650" y="90" width="460" height="260" rx="14" fill="url(#panel)" stroke="#2A3350"/><rect x="650" y="90" width="460" height="34" rx="14" fill="#0E111A"/><circle cx="672" cy="107" r="5" fill="#FF5C7C"/><circle cx="690" cy="107" r="5" fill="#FFB454"/><circle cx="708" cy="107" r="5" fill="#28C840"/><rect x="674" y="150" width="125" height="80" rx="10" fill="#10131B" stroke="#2A3350"/>
<rect x="819" y="150" width="125" height="80" rx="10" fill="#10131B" stroke="#2A3350"/>
<rect x="964" y="150" width="125" height="80" rx="10" fill="#10131B" stroke="#2A3350"/>
<rect x="674" y="250" width="125" height="80" rx="10" fill="#10131B" stroke="#2A3350"/>
<rect x="819" y="250" width="125" height="80" rx="10" fill="#10131B" stroke="#2A3350"/>
<rect x="964" y="250" width="125" height="80" rx="10" fill="#10131B" stroke="#2A3350"/>

</svg>